<svg width="1336" height="172" viewBox="0 0 1336 172" fill="none" xmlns="http://www.w3.org/2000/svg">
<rect x="19" y="19.9497" width="28.2133" height="28.2133" transform="rotate(-45 19 19.9497)" fill="#FFAE00"/>
<rect x="129" y="21.8994" width="14" height="14" transform="rotate(-45 129 21.8994)" fill="white"/>
<path d="M0 63.1669C9.74793 69.1577 52.0818 81.0271 143.434 80.5778C257.624 80.0161 270.853 32.8384 378.081 48.0027C485.308 63.1669 485.763 127.531 592.535 132.529C670.519 136.18 661.81 118.758 782.267 74.3886C802.227 66.7128 843.82 55.7927 883.926 79.8309C934.058 109.879 1079.24 120.173 1168.36 78.612C1239.66 45.3629 1317.83 64.7582 1348 78.612" stroke="#A5E5FF"/>
<path d="M0 52.5621C9.74773 58.6832 52.0808 70.8107 143.431 70.3516C257.619 69.7778 270.848 21.5739 378.073 37.068C485.298 52.5621 485.753 118.326 592.523 123.433C670.505 127.163 663.322 112.921 783.776 67.5867C803.736 59.744 851.588 54.4341 894.582 78.0408C954.942 111.183 1103.82 101.155 1192.95 58.6895C1264.24 24.7173 1373.39 78.3965 1411 84.0463" stroke="#3EC8FF"/>
<path d="M0 41.0753C9.74793 47.0359 52.0818 58.8453 143.434 58.3983C257.624 57.8395 270.853 10.8997 378.081 25.9875C485.308 41.0753 485.763 105.115 592.535 110.088C670.519 113.72 661.81 108.082 782.267 63.9365C802.227 56.2994 838.688 48.125 884.943 68.0518C945.582 94.1754 1079.24 97.7941 1168.36 56.4424C1239.66 23.3611 1317.83 42.6585 1348 56.4424" stroke="#CDFFF5"/>
<rect x="29" y="110.899" width="14" height="14" transform="rotate(-45 29 110.899)" fill="#32C5FF"/>
</svg>
